<?xml version="1.0" encoding="UTF-8"?>
<!DOCTYPE svg PUBLIC "-//W3C//DTD SVG 1.1//EN" "http://www.w3.org/Graphics/SVG/1.1/DTD/svg11.dtd">
<!-- Creator: CorelDRAW -->
<svg xmlns="http://www.w3.org/2000/svg" xml:space="preserve" width="591px" height="591px" style="shape-rendering:geometricPrecision; text-rendering:geometricPrecision; image-rendering:optimizeQuality; fill-rule:evenodd; clip-rule:evenodd"
viewBox="0 0 591 591"
 xmlns:xlink="http://www.w3.org/1999/xlink">
 <defs>
  <style type="text/css">
   <![CDATA[
    .fil0 {fill:#EC0000;fill-rule:nonzero}
   ]]>
  </style>
 </defs>
 <g id="Слой_x0020_1">
  <metadata id="CorelCorpID_0Corel-Layer"/>
  <path class="fil0" d="M297.355 452.841c-122.31,0 -214.541,-67.8929 -214.541,-157.915 0,-5.4372 0.349872,-10.7869 1.01297,-16.0539l104.95 0 -27.095 79.1893c-2.13115,6.23032 -1.12645,13.1013 2.69732,18.4557 3.83204,5.35801 10.008,8.53522 16.5917,8.53522l232.774 0c6.58374,0 12.755,-3.17722 16.587,-8.53522 3.82377,-5.35446 4.82847,-12.2254 2.70205,-18.4557l-27.095 -79.1893 104.946 0c0.663102,5.26699 1.01652,10.6167 1.01652,16.0539 0,90.0223 -92.2315,157.915 -214.546,157.915zm0 -315.83c94.8094,0 171.509,40.8097 201.224,101.085l-121.167 0c-6.58374,0 -12.7644,3.17722 -16.5917,8.53168 -3.82377,5.35801 -4.8332,12.2302 -2.69732,18.4593l27.095 79.1893 -175.721 0 27.095 -79.1893c2.13115,-6.22914 1.12172,-13.1013 -2.70205,-18.4593 -3.82732,-5.35446 -10.0033,-8.53168 -16.587,-8.53168l-121.172 0c29.7143,-60.2749 106.414,-101.085 201.224,-101.085zm0 -40.3015c-145.289,0 -254.843,85.2139 -254.843,198.217 0,113.003 109.554,198.217 254.843,198.217 145.29,0 254.847,-85.2139 254.847,-198.217 0,-113.003 -109.557,-198.217 -254.847,-198.217z"/>
 </g>
</svg>
